<svg width="142" height="12" viewBox="0 0 142 12" fill="none" xmlns="http://www.w3.org/2000/svg">
<path d="M2.5 5.90909C2.5 5.36553 2.63258 4.87003 2.89773 4.42259C3.16288 3.97514 3.51918 3.61884 3.96662 3.35369C4.41406 3.08854 4.90956 2.95597 5.45312 2.95597C5.92377 2.95597 6.35795 3.05705 6.75568 3.25923C7.15672 3.46141 7.48816 3.73816 7.75 4.08949C8.01184 4.4375 8.17424 4.83191 8.23722 5.27273H7.03409C6.9678 4.93134 6.78385 4.65294 6.48224 4.4375C6.18063 4.21875 5.83759 4.10938 5.45312 4.10938C5.12169 4.10938 4.82008 4.19058 4.5483 4.35298C4.27652 4.51539 4.05942 4.73248 3.89702 5.00426C3.73461 5.27604 3.65341 5.57765 3.65341 5.90909C3.65341 6.24053 3.73461 6.54214 3.89702 6.81392C4.05942 7.0857 4.27652 7.30279 4.5483 7.4652C4.82008 7.6276 5.12169 7.70881 5.45312 7.70881C5.83759 7.70881 6.16241 7.60109 6.42756 7.38565C6.69602 7.1669 6.86506 6.88684 6.93466 6.54545H8.13778C8.07481 6.98627 7.92069 7.38234 7.67543 7.73366C7.43016 8.08168 7.11529 8.35677 6.73082 8.55895C6.34967 8.76113 5.92377 8.86222 5.45312 8.86222C4.90956 8.86222 4.41406 8.72964 3.96662 8.46449C3.51918 8.19934 3.16288 7.84304 2.89773 7.3956C2.63258 6.94815 2.5 6.45265 2.5 5.90909ZM5.40341 11.1591C4.68087 11.1591 4.00142 11.0232 3.36506 10.7514C2.73201 10.4796 2.17353 10.1035 1.68963 9.62287C1.20904 9.13897 0.831203 8.58049 0.556108 7.94744C0.284328 7.31439 0.150095 6.63494 0.153409 5.90909C0.156723 5.18324 0.294271 4.50379 0.566051 3.87074C0.841146 3.23769 1.21899 2.68087 1.69957 2.20028C2.18016 1.71638 2.73698 1.33854 3.37003 1.06676C4.00308 0.794981 4.68087 0.659091 5.40341 0.659091C6.12926 0.659091 6.80871 0.794981 7.44176 1.06676C8.07813 1.33854 8.63494 1.71638 9.11222 2.20028C9.5928 2.68087 9.96899 3.23769 10.2408 3.87074C10.5125 4.50379 10.6501 5.18324 10.6534 5.90909C10.6567 6.63494 10.5225 7.31439 10.2507 7.94744C9.97893 8.58049 9.60275 9.13897 9.12216 9.62287C8.64157 10.1035 8.0831 10.4796 7.44673 10.7514C6.81037 11.0232 6.12926 11.1591 5.40341 11.1591ZM5.40341 10.0057C5.97017 10.0057 6.50213 9.89962 6.99929 9.6875C7.49645 9.47538 7.93229 9.18205 8.30682 8.80753C8.68134 8.433 8.97467 7.99882 9.18679 7.50497C9.39891 7.00781 9.50331 6.47751 9.5 5.91406C9.49669 5.3473 9.38897 4.81534 9.17685 4.31818C8.96473 3.82102 8.6714 3.38518 8.29688 3.01065C7.92235 2.63613 7.48816 2.3428 6.99432 2.13068C6.50047 1.91856 5.97017 1.8125 5.40341 1.8125C4.83996 1.8125 4.31132 1.91856 3.81747 2.13068C3.32363 2.3428 2.88944 2.63778 2.51491 3.01562C2.14039 3.39015 1.84541 3.82599 1.62997 4.32315C1.41785 4.817 1.31013 5.3473 1.30682 5.91406C1.3035 6.47419 1.40791 7.00284 1.62003 7.5C1.83215 7.99384 2.12547 8.42803 2.5 8.80256C2.87784 9.17708 3.31368 9.47206 3.80753 9.6875C4.30469 9.89962 4.83665 10.0057 5.40341 10.0057ZM16.802 11V10.1051L20.1628 6.42614C20.5572 5.99526 20.882 5.62074 21.1373 5.30256C21.3925 4.98106 21.5814 4.67945 21.704 4.39773C21.83 4.11269 21.8929 3.81439 21.8929 3.50284C21.8929 3.14489 21.8068 2.83499 21.6344 2.57315C21.4654 2.31132 21.2334 2.10914 20.9384 1.96662C20.6434 1.8241 20.312 1.75284 19.9441 1.75284C19.553 1.75284 19.2116 1.83404 18.9199 1.99645C18.6316 2.15554 18.4078 2.37926 18.2488 2.66761C18.093 2.95597 18.0151 3.29403 18.0151 3.68182H16.8418C16.8418 3.08523 16.9793 2.56155 17.2544 2.1108C17.5295 1.66004 17.9041 1.30871 18.378 1.05682C18.8553 0.804924 19.3906 0.678977 19.9838 0.678977C20.5804 0.678977 21.1091 0.804924 21.5698 1.05682C22.0305 1.30871 22.3917 1.64844 22.6536 2.07599C22.9154 2.50355 23.0463 2.97917 23.0463 3.50284C23.0463 3.87737 22.9784 4.24361 22.8425 4.60156C22.7099 4.9562 22.4779 5.35227 22.1465 5.78977C21.8184 6.22396 21.3626 6.75426 20.7793 7.38068L18.4924 9.8267V9.90625H23.2253V11H16.802ZM28.5996 11.1392C27.8506 11.1392 27.2125 10.9354 26.6855 10.5277C26.1586 10.1167 25.7559 9.52178 25.4775 8.7429C25.199 7.9607 25.0598 7.0161 25.0598 5.90909C25.0598 4.80871 25.199 3.86908 25.4775 3.0902C25.7592 2.308 26.1635 1.71141 26.6905 1.30043C27.2208 0.886126 27.8572 0.678977 28.5996 0.678977C29.342 0.678977 29.9767 0.886126 30.5037 1.30043C31.034 1.71141 31.4384 2.308 31.7168 3.0902C31.9985 3.86908 32.1394 4.80871 32.1394 5.90909C32.1394 7.0161 32.0002 7.9607 31.7218 8.7429C31.4434 9.52178 31.0407 10.1167 30.5137 10.5277C29.9867 10.9354 29.3487 11.1392 28.5996 11.1392ZM28.5996 10.0455C29.342 10.0455 29.9187 9.6875 30.3297 8.97159C30.7407 8.25568 30.9462 7.23485 30.9462 5.90909C30.9462 5.02746 30.8517 4.27675 30.6628 3.65696C30.4772 3.03717 30.2087 2.56487 29.8574 2.24006C29.5094 1.91525 29.0901 1.75284 28.5996 1.75284C27.8638 1.75284 27.2888 2.11577 26.8745 2.84162C26.4602 3.56416 26.253 4.58665 26.253 5.90909C26.253 6.79072 26.3458 7.53977 26.5314 8.15625C26.717 8.77273 26.9838 9.24171 27.3319 9.56321C27.6832 9.88471 28.1058 10.0455 28.5996 10.0455ZM34.0286 11V10.1051L37.3894 6.42614C37.7838 5.99526 38.1086 5.62074 38.3638 5.30256C38.619 4.98106 38.8079 4.67945 38.9306 4.39773C39.0565 4.11269 39.1195 3.81439 39.1195 3.50284C39.1195 3.14489 39.0333 2.83499 38.861 2.57315C38.6919 2.31132 38.4599 2.10914 38.165 1.96662C37.87 1.8241 37.5385 1.75284 37.1706 1.75284C36.7795 1.75284 36.4382 1.83404 36.1465 1.99645C35.8581 2.15554 35.6344 2.37926 35.4753 2.66761C35.3195 2.95597 35.2417 3.29403 35.2417 3.68182H34.0684C34.0684 3.08523 34.2059 2.56155 34.481 2.1108C34.7561 1.66004 35.1306 1.30871 35.6046 1.05682C36.0819 0.804924 36.6171 0.678977 37.2104 0.678977C37.807 0.678977 38.3356 0.804924 38.7963 1.05682C39.257 1.30871 39.6183 1.64844 39.8801 2.07599C40.142 2.50355 40.2729 2.97917 40.2729 3.50284C40.2729 3.87737 40.205 4.24361 40.0691 4.60156C39.9365 4.9562 39.7045 5.35227 39.373 5.78977C39.0449 6.22396 38.5892 6.75426 38.0059 7.38068L35.7189 9.8267V9.90625H40.4519V11H34.0286ZM45.8262 11.1392C45.0771 11.1392 44.4391 10.9354 43.9121 10.5277C43.3851 10.1167 42.9824 9.52178 42.704 8.7429C42.4256 7.9607 42.2864 7.0161 42.2864 5.90909C42.2864 4.80871 42.4256 3.86908 42.704 3.0902C42.9857 2.308 43.3901 1.71141 43.9171 1.30043C44.4474 0.886126 45.0837 0.678977 45.8262 0.678977C46.5686 0.678977 47.2033 0.886126 47.7303 1.30043C48.2606 1.71141 48.665 2.308 48.9434 3.0902C49.2251 3.86908 49.3659 4.80871 49.3659 5.90909C49.3659 7.0161 49.2267 7.9607 48.9483 8.7429C48.6699 9.52178 48.2672 10.1167 47.7402 10.5277C47.2132 10.9354 46.5752 11.1392 45.8262 11.1392ZM45.8262 10.0455C46.5686 10.0455 47.1453 9.6875 47.5563 8.97159C47.9673 8.25568 48.1728 7.23485 48.1728 5.90909C48.1728 5.02746 48.0783 4.27675 47.8894 3.65696C47.7038 3.03717 47.4353 2.56487 47.084 2.24006C46.736 1.91525 46.3167 1.75284 45.8262 1.75284C45.0904 1.75284 44.5153 2.11577 44.101 2.84162C43.6867 3.56416 43.4796 4.58665 43.4796 5.90909C43.4796 6.79072 43.5724 7.53977 43.758 8.15625C43.9436 8.77273 44.2104 9.24171 44.5584 9.56321C44.9097 9.88471 45.3323 10.0455 45.8262 10.0455ZM55.3716 0.818182H56.8432L60.3034 9.26989H60.4228L63.883 0.818182H65.3546V11H64.2012V3.2642H64.1017L60.9199 11H59.8063L56.6245 3.2642H56.525V11H55.3716V0.818182ZM70.8693 11.1591C70.1335 11.1591 69.4988 10.9967 68.9652 10.6719C68.4349 10.3438 68.0256 9.88636 67.7372 9.29972C67.4522 8.70975 67.3097 8.02367 67.3097 7.24148C67.3097 6.45928 67.4522 5.76989 67.7372 5.1733C68.0256 4.57339 68.4266 4.10606 68.9403 3.77131C69.4574 3.43324 70.0606 3.2642 70.75 3.2642C71.1477 3.2642 71.5405 3.33049 71.9283 3.46307C72.3161 3.59564 72.669 3.81108 72.9872 4.10938C73.3054 4.40436 73.5589 4.79545 73.7479 5.28267C73.9368 5.76989 74.0312 6.36979 74.0312 7.08239V7.57955H68.1449V6.56534H72.8381C72.8381 6.13447 72.7519 5.75 72.5795 5.41193C72.4105 5.07386 72.1686 4.80705 71.8537 4.61151C71.5421 4.41596 71.1742 4.31818 70.75 4.31818C70.2827 4.31818 69.8783 4.43419 69.5369 4.66619C69.1989 4.89489 68.9387 5.19318 68.7564 5.56108C68.5741 5.92898 68.483 6.32339 68.483 6.74432V7.42045C68.483 7.99716 68.5824 8.48603 68.7812 8.88707C68.9834 9.2848 69.2635 9.58807 69.6214 9.79688C69.9794 10.0024 70.3954 10.1051 70.8693 10.1051C71.1776 10.1051 71.456 10.062 71.7045 9.97585C71.9564 9.88636 72.1735 9.75379 72.3558 9.57812C72.5381 9.39915 72.679 9.17708 72.7784 8.91193L73.9119 9.23011C73.7926 9.61458 73.5921 9.95265 73.3104 10.2443C73.0286 10.5327 72.6806 10.758 72.2663 10.9205C71.852 11.0795 71.3864 11.1591 70.8693 11.1591ZM81.2251 5.07386L80.1712 5.37216C80.1049 5.1965 80.0071 5.0258 79.8778 4.86009C79.7519 4.69105 79.5795 4.55185 79.3608 4.44247C79.142 4.3331 78.862 4.27841 78.5206 4.27841C78.0533 4.27841 77.6638 4.38613 77.3523 4.60156C77.044 4.81368 76.8899 5.08381 76.8899 5.41193C76.8899 5.7036 76.996 5.93395 77.2081 6.10298C77.4202 6.27202 77.7517 6.41288 78.2024 6.52557L79.3359 6.80398C80.0187 6.9697 80.5275 7.22325 80.8622 7.56463C81.197 7.9027 81.3643 8.33854 81.3643 8.87216C81.3643 9.30966 81.2384 9.70076 80.9865 10.0455C80.7379 10.3902 80.3899 10.6619 79.9425 10.8608C79.495 11.0597 78.9747 11.1591 78.3814 11.1591C77.6025 11.1591 76.9579 10.9901 76.4474 10.652C75.937 10.3139 75.6139 9.82008 75.478 9.17045L76.5916 8.89205C76.6977 9.30303 76.8982 9.61127 77.1932 9.81676C77.4915 10.0223 77.8809 10.125 78.3615 10.125C78.9084 10.125 79.3426 10.009 79.6641 9.77699C79.9889 9.54167 80.1513 9.25994 80.1513 8.93182C80.1513 8.66667 80.0585 8.4446 79.8729 8.26562C79.6873 8.08333 79.4022 7.94744 79.0178 7.85795L77.745 7.55966C77.0457 7.39394 76.532 7.13707 76.2038 6.78906C75.879 6.43774 75.7166 5.99858 75.7166 5.47159C75.7166 5.04072 75.8376 4.65956 76.0795 4.32812C76.3248 3.99669 76.6579 3.73651 77.0788 3.54758C77.5031 3.35866 77.9837 3.2642 78.5206 3.2642C79.2763 3.2642 79.8696 3.42992 80.3004 3.76136C80.7346 4.0928 81.0429 4.5303 81.2251 5.07386ZM86.4515 3.36364V4.35795H82.4941V3.36364H86.4515ZM83.6475 1.53409H84.8208V8.8125C84.8208 9.14394 84.8689 9.39252 84.965 9.55824C85.0645 9.72064 85.1904 9.83002 85.3429 9.88636C85.4986 9.93939 85.6627 9.96591 85.835 9.96591C85.9643 9.96591 86.0704 9.95928 86.1532 9.94602C86.2361 9.92945 86.3024 9.91619 86.3521 9.90625L86.5907 10.9602C86.5112 10.9901 86.4002 11.0199 86.2576 11.0497C86.1151 11.0829 85.9345 11.0994 85.7157 11.0994C85.3843 11.0994 85.0595 11.0282 84.7413 10.8857C84.4264 10.7431 84.1646 10.526 83.9558 10.2344C83.7503 9.94271 83.6475 9.57481 83.6475 9.13068V1.53409ZM91.2367 11.1591C90.5473 11.1591 89.9424 10.995 89.4221 10.6669C88.905 10.3388 88.5007 9.87973 88.209 9.28977C87.9206 8.69981 87.7765 8.01042 87.7765 7.22159C87.7765 6.42614 87.9206 5.73177 88.209 5.13849C88.5007 4.54522 88.905 4.08452 89.4221 3.75639C89.9424 3.42827 90.5473 3.2642 91.2367 3.2642C91.9261 3.2642 92.5293 3.42827 93.0463 3.75639C93.5667 4.08452 93.9711 4.54522 94.2594 5.13849C94.5511 5.73177 94.6969 6.42614 94.6969 7.22159C94.6969 8.01042 94.5511 8.69981 94.2594 9.28977C93.9711 9.87973 93.5667 10.3388 93.0463 10.6669C92.5293 10.995 91.9261 11.1591 91.2367 11.1591ZM91.2367 10.1051C91.7604 10.1051 92.1912 9.97088 92.5293 9.70241C92.8674 9.43395 93.1176 9.08097 93.28 8.64347C93.4424 8.20597 93.5236 7.73201 93.5236 7.22159C93.5236 6.71117 93.4424 6.23556 93.28 5.79474C93.1176 5.35393 92.8674 4.99763 92.5293 4.72585C92.1912 4.45407 91.7604 4.31818 91.2367 4.31818C90.713 4.31818 90.2821 4.45407 89.9441 4.72585C89.606 4.99763 89.3558 5.35393 89.1934 5.79474C89.031 6.23556 88.9498 6.71117 88.9498 7.22159C88.9498 7.73201 89.031 8.20597 89.1934 8.64347C89.3558 9.08097 89.606 9.43395 89.9441 9.70241C90.2821 9.97088 90.713 10.1051 91.2367 10.1051ZM100.585 11V0.818182H104.025C104.82 0.818182 105.473 0.954072 105.984 1.22585C106.494 1.49432 106.872 1.86387 107.117 2.33452C107.362 2.80516 107.485 3.34044 107.485 3.94034C107.485 4.54025 107.362 5.07221 107.117 5.53622C106.872 6.00024 106.496 6.36482 105.989 6.62997C105.482 6.89181 104.834 7.02273 104.045 7.02273H101.261V5.90909H104.005C104.549 5.90909 104.986 5.82955 105.317 5.67045C105.652 5.51136 105.894 5.28598 106.043 4.99432C106.196 4.69934 106.272 4.34801 106.272 3.94034C106.272 3.53267 106.196 3.17637 106.043 2.87145C105.891 2.56652 105.647 2.3312 105.312 2.16548C104.978 1.99645 104.535 1.91193 103.985 1.91193H101.817V11H100.585ZM105.377 6.42614L107.883 11H106.451L103.985 6.42614H105.377ZM114.193 7.87784V3.36364H115.366V11H114.193V9.70739H114.113C113.934 10.0952 113.656 10.425 113.278 10.6967C112.9 10.9652 112.423 11.0994 111.846 11.0994C111.369 11.0994 110.945 10.995 110.574 10.7862C110.202 10.5741 109.911 10.2559 109.699 9.83168C109.487 9.40412 109.381 8.86553 109.381 8.21591V3.36364H110.554V8.13636C110.554 8.69318 110.71 9.13731 111.021 9.46875C111.336 9.80019 111.737 9.96591 112.224 9.96591C112.516 9.96591 112.813 9.89134 113.114 9.74219C113.419 9.59304 113.674 9.36435 113.88 9.05611C114.089 8.74787 114.193 8.35511 114.193 7.87784ZM122.924 5.07386L121.87 5.37216C121.804 5.1965 121.706 5.0258 121.577 4.86009C121.451 4.69105 121.279 4.55185 121.06 4.44247C120.841 4.3331 120.561 4.27841 120.22 4.27841C119.752 4.27841 119.363 4.38613 119.051 4.60156C118.743 4.81368 118.589 5.08381 118.589 5.41193C118.589 5.7036 118.695 5.93395 118.907 6.10298C119.119 6.27202 119.451 6.41288 119.902 6.52557L121.035 6.80398C121.718 6.9697 122.227 7.22325 122.561 7.56463C122.896 7.9027 123.064 8.33854 123.064 8.87216C123.064 9.30966 122.938 9.70076 122.686 10.0455C122.437 10.3902 122.089 10.6619 121.642 10.8608C121.194 11.0597 120.674 11.1591 120.081 11.1591C119.302 11.1591 118.657 10.9901 118.147 10.652C117.636 10.3139 117.313 9.82008 117.177 9.17045L118.291 8.89205C118.397 9.30303 118.597 9.61127 118.892 9.81676C119.191 10.0223 119.58 10.125 120.061 10.125C120.608 10.125 121.042 10.009 121.363 9.77699C121.688 9.54167 121.85 9.25994 121.85 8.93182C121.85 8.66667 121.758 8.4446 121.572 8.26562C121.386 8.08333 121.101 7.94744 120.717 7.85795L119.444 7.55966C118.745 7.39394 118.231 7.13707 117.903 6.78906C117.578 6.43774 117.416 5.99858 117.416 5.47159C117.416 5.04072 117.537 4.65956 117.779 4.32812C118.024 3.99669 118.357 3.73651 118.778 3.54758C119.202 3.35866 119.683 3.2642 120.22 3.2642C120.975 3.2642 121.569 3.42992 122 3.76136C122.434 4.0928 122.742 4.5303 122.924 5.07386ZM130.239 5.07386L129.185 5.37216C129.119 5.1965 129.021 5.0258 128.892 4.86009C128.766 4.69105 128.593 4.55185 128.374 4.44247C128.156 4.3331 127.876 4.27841 127.534 4.27841C127.067 4.27841 126.677 4.38613 126.366 4.60156C126.058 4.81368 125.904 5.08381 125.904 5.41193C125.904 5.7036 126.01 5.93395 126.222 6.10298C126.434 6.27202 126.765 6.41288 127.216 6.52557L128.35 6.80398C129.032 6.9697 129.541 7.22325 129.876 7.56463C130.211 7.9027 130.378 8.33854 130.378 8.87216C130.378 9.30966 130.252 9.70076 130 10.0455C129.752 10.3902 129.404 10.6619 128.956 10.8608C128.509 11.0597 127.988 11.1591 127.395 11.1591C126.616 11.1591 125.972 10.9901 125.461 10.652C124.951 10.3139 124.628 9.82008 124.492 9.17045L125.605 8.89205C125.711 9.30303 125.912 9.61127 126.207 9.81676C126.505 10.0223 126.895 10.125 127.375 10.125C127.922 10.125 128.356 10.009 128.678 9.77699C129.003 9.54167 129.165 9.25994 129.165 8.93182C129.165 8.66667 129.072 8.4446 128.887 8.26562C128.701 8.08333 128.416 7.94744 128.031 7.85795L126.759 7.55966C126.059 7.39394 125.546 7.13707 125.218 6.78906C124.893 6.43774 124.73 5.99858 124.73 5.47159C124.73 5.04072 124.851 4.65956 125.093 4.32812C125.338 3.99669 125.672 3.73651 126.093 3.54758C126.517 3.35866 126.997 3.2642 127.534 3.2642C128.29 3.2642 128.883 3.42992 129.314 3.76136C129.748 4.0928 130.057 4.5303 130.239 5.07386ZM132.144 11V3.36364H133.317V11H132.144ZM132.741 2.09091C132.512 2.09091 132.315 2.01302 132.149 1.85724C131.987 1.70147 131.906 1.5142 131.906 1.29545C131.906 1.0767 131.987 0.889441 132.149 0.733664C132.315 0.577888 132.512 0.5 132.741 0.5C132.969 0.5 133.165 0.577888 133.327 0.733664C133.493 0.889441 133.576 1.0767 133.576 1.29545C133.576 1.5142 133.493 1.70147 133.327 1.85724C133.165 2.01302 132.969 2.09091 132.741 2.09091ZM137.714 11.179C137.23 11.179 136.791 11.0878 136.396 10.9055C136.002 10.7199 135.689 10.4531 135.456 10.1051C135.224 9.75379 135.108 9.32955 135.108 8.83239C135.108 8.39489 135.195 8.04025 135.367 7.76847C135.539 7.49337 135.77 7.27794 136.058 7.12216C136.346 6.96638 136.665 6.85038 137.013 6.77415C137.364 6.6946 137.717 6.63163 138.072 6.58523C138.536 6.52557 138.912 6.48082 139.2 6.45099C139.492 6.41785 139.704 6.36316 139.836 6.28693C139.972 6.2107 140.04 6.07812 140.04 5.8892V5.84943C140.04 5.3589 139.906 4.97775 139.638 4.70597C139.372 4.43419 138.97 4.2983 138.43 4.2983C137.869 4.2983 137.43 4.42093 137.112 4.66619C136.794 4.91146 136.57 5.1733 136.441 5.4517L135.327 5.05398C135.526 4.58996 135.791 4.22869 136.123 3.97017C136.457 3.70833 136.822 3.52604 137.216 3.4233C137.614 3.31723 138.005 3.2642 138.39 3.2642C138.635 3.2642 138.917 3.29403 139.235 3.35369C139.556 3.41004 139.866 3.5277 140.165 3.70668C140.466 3.88565 140.716 4.15578 140.915 4.51705C141.114 4.87831 141.214 5.36222 141.214 5.96875V11H140.04V9.96591H139.981C139.901 10.1316 139.769 10.3089 139.583 10.4979C139.397 10.6868 139.15 10.8475 138.842 10.9801C138.534 11.1127 138.158 11.179 137.714 11.179ZM137.893 10.125C138.357 10.125 138.748 10.0339 139.066 9.85156C139.387 9.66927 139.629 9.43395 139.792 9.1456C139.957 8.85724 140.04 8.55398 140.04 8.2358V7.16193C139.991 7.22159 139.881 7.27628 139.712 7.32599C139.546 7.3724 139.354 7.41383 139.135 7.45028C138.92 7.48343 138.71 7.51326 138.504 7.53977C138.302 7.56297 138.138 7.58286 138.012 7.59943C137.707 7.6392 137.422 7.70384 137.157 7.79332C136.895 7.8795 136.683 8.01042 136.52 8.18608C136.361 8.35843 136.282 8.59375 136.282 8.89205C136.282 9.29972 136.433 9.60795 136.734 9.81676C137.039 10.0223 137.425 10.125 137.893 10.125Z" fill="#545454"/>
</svg>
